HIERARCHY
ROOT hip
{
  OFFSET 0 0 0
  CHANNELS 6 Xposition Yposition Zposition Zrotation Yrotation Xrotation
  JOINT abdomen
  {
    OFFSET 0 20.6881 -0.73152
    CHANNELS 3 Zrotation Xrotation Yrotation
    JOINT chest
    {
      OFFSET 0 11.7043 -0.48768
      CHANNELS 3 Zrotation Xrotation Yrotation
      JOINT neck
      {
        OFFSET 0 22.1894 -2.19456
        CHANNELS 3 Zrotation Xrotation Yrotation
        JOINT head
        {
          OFFSET -0.24384 7.07133 1.2192
          CHANNELS 3 Zrotation Xrotation Yrotation
          JOINT leftEye
          {
            OFFSET 4.14528 8.04674 8.04672
            CHANNELS 3 Zrotation Xrotation Yrotation
            End Site
            {
              OFFSET 1 0 0
            }
          }
          JOINT rightEye
          {
            OFFSET -3.6576 8.04674 8.04672
            CHANNELS 3 Zrotation Xrotation Yrotation
            End Site
            {
              OFFSET 1 0 0
            }
          }
        }
      }
      JOINT rCollar
      {
        OFFSET -2.68224 19.2634 -4.8768
        CHANNELS 3 Zrotation Xrotation Yrotation
        JOINT rShldr
        {
          OFFSET -8.77824 -1.95073 1.46304
          CHANNELS 3 Zrotation Xrotation Yrotation
          JOINT rForeArm
          {
            OFFSET -28.1742 -1.7115 0.48768
            CHANNELS 3 Zrotation Xrotation Yrotation
            JOINT rHand
            {
              OFFSET -22.5879 0.773209 7.07136
              CHANNELS 3 Zrotation Xrotation Yrotation
              JOINT rThumb1
              {
                OFFSET -1.2192 -0.487915 3.41376
                CHANNELS 3 Zrotation Xrotation Yrotation
                JOINT rThumb2
                {
                  OFFSET -3.37035 -0.52449 3.41376
                  CHANNELS 3 Zrotation Xrotation Yrotation
                  End Site
                  {
                    OFFSET -1.78271 -1.18214 1.43049
                  }
                }
              }
              JOINT rIndex1
              {
                OFFSET -7.75947 0.938293 5.60832
                CHANNELS 3 Zrotation Xrotation Yrotation
                JOINT rIndex2
                {
                  OFFSET -2.54057 -0.884171 1.56538
                  CHANNELS 3 Zrotation Xrotation Yrotation
                  End Site
                  {
                    OFFSET -1.62519 -0.234802 1.16502
                  }
                }
              }
              JOINT rMid1
              {
                OFFSET -8.24714 1.18213 3.41376
                CHANNELS 3 Zrotation Xrotation Yrotation
                JOINT rMid2
                {
                  OFFSET -3.10165 -0.590103 1.0647
                  CHANNELS 3 Zrotation Xrotation Yrotation
                  End Site
                  {
                    OFFSET -2.48547 -0.328903 0.83742
                  }
                }
              }
              JOINT rRing1
              {
                OFFSET -8.82822 0.546677 1.51678
                CHANNELS 3 Zrotation Xrotation Yrotation
                JOINT rRing2
                {
                  OFFSET -2.60934 -0.819778 -0.0198488
                  CHANNELS 3 Zrotation Xrotation Yrotation
                  End Site
                  {
                    OFFSET -2.33842 -0.294052 0.168128
                  }
                }
              }
              JOINT rPinky1
              {
                OFFSET -8.27202 -0.0477905 -0.4584
                CHANNELS 3 Zrotation Xrotation Yrotation
                JOINT rPinky2
                {
                  OFFSET -1.82734 -0.647385 -0.700984
                  CHANNELS 3 Zrotation Xrotation Yrotation
                  End Site
                  {
                    OFFSET -1.69225 -0.51767 -0.607171
                  }
                }
              }
            }
          }
        }
      }
      JOINT lCollar
      {
        OFFSET 2.68224 19.2634 -4.8768
        CHANNELS 3 Zrotation Xrotation Yrotation
        JOINT lShldr
        {
          OFFSET 8.77824 -1.95073 1.46304
          CHANNELS 3 Zrotation Xrotation Yrotation
          JOINT lForeArm
          {
            OFFSET 28.1742 -1.7115 0.48768
            CHANNELS 3 Zrotation Xrotation Yrotation
            JOINT lHand
            {
              OFFSET 22.5879 0.773209 7.07136
              CHANNELS 3 Zrotation Xrotation Yrotation
              JOINT lThumb1
              {
                OFFSET 1.2192 -0.487915 3.41376
                CHANNELS 3 Zrotation Xrotation Yrotation
                JOINT lThumb2
                {
                  OFFSET 3.37035 -0.52449 3.41376
                  CHANNELS 3 Zrotation Xrotation Yrotation
                  End Site
                  {
                    OFFSET 1.78271 -1.18214 1.43049
                  }
                }
              }
              JOINT lIndex1
              {
                OFFSET 7.75947 0.938293 5.60832
                CHANNELS 3 Zrotation Xrotation Yrotation
                JOINT lIndex2
                {
                  OFFSET 2.54057 -0.884171 1.56538
                  CHANNELS 3 Zrotation Xrotation Yrotation
                  End Site
                  {
                    OFFSET 1.62519 -0.234802 1.16502
                  }
                }
              }
              JOINT lMid1
              {
                OFFSET 8.24714 1.18213 3.41376
                CHANNELS 3 Zrotation Xrotation Yrotation
                JOINT lMid2
                {
                  OFFSET 3.10165 -0.590103 1.0647
                  CHANNELS 3 Zrotation Xrotation Yrotation
                  End Site
                  {
                    OFFSET 2.48547 -0.328903 0.83742
                  }
                }
              }
              JOINT lRing1
              {
                OFFSET 8.82822 0.546677 1.51678
                CHANNELS 3 Zrotation Xrotation Yrotation
                JOINT lRing2
                {
                  OFFSET 2.60934 -0.819778 -0.0198488
                  CHANNELS 3 Zrotation Xrotation Yrotation
                  End Site
                  {
                    OFFSET 2.33842 -0.294052 0.168128
                  }
                }
              }
              JOINT lPinky1
              {
                OFFSET 8.27202 -0.0477905 -0.4584
                CHANNELS 3 Zrotation Xrotation Yrotation
                JOINT lPinky2
                {
                  OFFSET 1.82734 -0.647385 -0.700984
                  CHANNELS 3 Zrotation Xrotation Yrotation
                  End Site
                  {
                    OFFSET 1.69225 -0.51767 -0.607171
                  }
                }
              }
            }
          }
        }
      }
    }
  }
  JOINT rButtock
  {
    OFFSET -8.77824 4.35084 1.2192
    CHANNELS 3 Zrotation Xrotation Yrotation
    JOINT rThigh
    {
      OFFSET 0 -1.70687 -2.19456
      CHANNELS 3 Zrotation Xrotation Yrotation
      JOINT rShin
      {
        OFFSET 0 -36.8199 0.73152
        CHANNELS 3 Zrotation Xrotation Yrotation
        JOINT rFoot
        {
          OFFSET 0.73152 -45.1104 -5.12064
          CHANNELS 3 Zrotation Xrotation Yrotation
          End Site
          {
            OFFSET -1.1221 -3.69964 12.103
          }
        }
      }
    }
  }
  JOINT lButtock
  {
    OFFSET 8.77824 4.35084 1.2192
    CHANNELS 3 Zrotation Xrotation Yrotation
    JOINT lThigh
    {
      OFFSET 0 -1.70687 -2.19456
      CHANNELS 3 Zrotation Xrotation Yrotation
      JOINT lShin
      {
        OFFSET 0 -36.8199 0.73152
        CHANNELS 3 Zrotation Xrotation Yrotation
        JOINT lFoot
        {
          OFFSET -0.73152 -45.1104 -5.12064
          CHANNELS 3 Zrotation Xrotation Yrotation
          End Site
          {
            OFFSET 1.1221 -3.69964 12.103
          }
        }
      }
    }
  }
}
MOTION
Frames:	4
Frame Time:	0.00833333
30.923 46.3502 27.6986 124.332 -85.2952 -149.182 -4.56609 47.3236 2.10677 -0.283056 -3.198 -1.06512 -9.48449 6.59414 -7.43987 31.0908 18.3725 -22.5201 -0.0 0.0 0.0 -0.0 0.0 0.0 -1.67533e-13 4.15335e-12 1.0201e-13 51.0866 33.2815 46.6019 -19.2056 -12.0443 36.7848 -0.681335 22.7713 3.38216 3.04981e-09 -1.45762e-09 1.47618e-09 5.29654e-09 -2.53453e-09 2.49109e-09 3.04982e-09 -1.45763e-09 1.47616e-09 7.73091 5.47488 0.417314 3.04981e-09 -1.45763e-09 1.47617e-09 2.90554 0.965183 0.102902 3.04982e-09 -1.45763e-09 1.47617e-09 10.2786 0.731801 0.0259123 3.0498e-09 -1.45762e-09 1.47618e-09 2.22167 -0.733487 -0.20892 -1.6765e-13 4.15335e-12 1.01782e-13 -36.5762 35.5594 -54.316 17.4125 -10.0688 -32.7148 1.04149 27.6755 -4.22696 -1.61409e-09 -1.5593e-09 -4.52915e-10 -2.79939e-09 -2.70321e-09 -7.44297e-10 -1.61409e-09 -1.55927e-09 -4.52908e-10 -7.73091 5.47488 -0.417314 -1.61409e-09 -1.55929e-09 -4.52914e-10 -2.90554 0.965183 -0.102902 -1.6141e-09 -1.55929e-09 -4.52915e-10 -10.2786 0.731801 -0.0259123 -1.61409e-09 -1.55929e-09 -4.52925e-10 -2.22167 -0.733487 0.20892 -2.03217e-16 0.0 -3.88251e-19 -24.3142 -41.0132 -14.3963 -0.867571 64.9684 3.49 2.87819 5.38975 -2.75104 2.03217e-16 0.0 3.88251e-19 16.5956 -39.3457 7.46533 0.661211 60.149 -2.95002 -3.29472 6.50628 6.62453
30.928 46.3686 27.7658 120.385 -85.1713 -145.224 -4.62603 47.3794 2.18749 -0.267841 -3.30354 -1.04509 -9.54376 6.68917 -7.50551 31.1677 18.3017 -22.6437 -0.0 0.0 0.0 -0.0 0.0 0.0 -1.55928e-13 5.02434e-12 1.03119e-14 51.2391 33.2025 46.3034 -19.2104 -12.0499 36.7961 -0.691261 22.9258 3.40777 2.65377e-09 -1.26126e-09 1.48643e-09 4.61168e-09 -2.19406e-09 2.51643e-09 2.65378e-09 -1.26126e-09 1.48641e-09 7.73091 5.47488 0.417314 2.65377e-09 -1.26126e-09 1.48643e-09 2.90554 0.965183 0.102902 2.65378e-09 -1.26126e-09 1.48643e-09 10.2786 0.731801 0.0259123 2.65376e-09 -1.26126e-09 1.48644e-09 2.22167 -0.733487 -0.20892 -1.56072e-13 5.02434e-12 1.00355e-14 -36.6688 35.653 -54.5113 17.3416 -9.99616 -32.5587 1.06585 27.9654 -4.27919 -1.25547e-09 -1.28546e-09 -3.33728e-11 -2.17038e-09 -2.22387e-09 -2.81968e-11 -1.25547e-09 -1.28545e-09 -3.3363e-11 -7.73091 5.47488 -0.417314 -1.25547e-09 -1.28546e-09 -3.33744e-11 -2.90554 0.965183 -0.102902 -1.25548e-09 -1.28546e-09 -3.33744e-11 -10.2786 0.731801 -0.0259123 -1.25547e-09 -1.28546e-09 -3.33825e-11 -2.22167 -0.733487 0.20892 -2.03217e-16 0.0 -3.88251e-19 -24.531 -40.9259 -14.445 -0.870439 64.9636 3.48913 2.89364 5.37353 -2.87845 2.03217e-16 0.0 3.88251e-19 16.2987 -39.3224 7.33475 0.656769 60.0781 -2.94524 -3.27449 6.60654 6.4372
30.9545 46.3531 27.8171 117.258 -85.1432 -141.997 -4.71387 47.4363 2.25358 -0.211575 -3.38993 -1.03237 -9.62832 6.75644 -7.56579 31.201 18.2345 -22.7318 -0.0 0.0 0.0 -0.0 0.0 0.0 -1.35256e-13 5.71578e-12 -9.27292e-14 51.2983 33.1465 46.0679 -19.2159 -12.0565 36.809 -0.698977 23.0455 3.42763 2.18536e-09 -1.01152e-09 1.47602e-09 3.80144e-09 -1.76087e-09 2.5076e-09 2.18537e-09 -1.01151e-09 1.476e-09 7.73091 5.47488 0.417314 2.18536e-09 -1.01151e-09 1.47601e-09 2.90554 0.965183 0.102902 2.18538e-09 -1.01151e-09 1.47602e-09 10.2786 0.731801 0.0259123 2.18536e-09 -1.01152e-09 1.47603e-09 2.22167 -0.733487 -0.20892 -1.35422e-13 5.71578e-12 -9.30526e-14 -36.8212 35.7056 -54.6804 17.2735 -9.92652 -32.4095 1.09322 28.2846 -4.33708 -8.76189e-10 -9.81946e-10 3.99561e-10 -1.50531e-09 -1.69292e-09 7.1055e-10 -8.76193e-10 -9.81941e-10 3.99573e-10 -7.73091 5.47488 -0.417314 -8.76188e-10 -9.81947e-10 3.99556e-10 -2.90554 0.965183 -0.102902 -8.76197e-10 -9.81945e-10 3.99558e-10 -10.2786 0.731801 -0.0259123 -8.76188e-10 -9.81943e-10 3.99551e-10 -2.22167 -0.733487 0.20892 -2.03217e-16 0.0 -3.88251e-19 -24.7698 -40.8422 -14.4849 -0.873738 64.9609 3.48911 2.91093 5.35096 -3.01579 2.03217e-16 0.0 3.88251e-19 15.9888 -39.2949 7.22199 0.652883 60.0056 -2.94094 -3.25535 6.69767 6.26567
30.955 46.3587 27.793 118.182 -85.346 -143.01 -4.74294 47.4689 2.25026 -0.120298 -3.41905 -1.03306 -9.74298 6.75007 -7.59183 31.1702 18.2077 -22.7273 -0.0 0.0 0.0 -0.0 0.0 0.0 -1.14619e-13 5.97665e-12 -1.65588e-13 51.1889 33.1674 46.0324 -19.2102 -12.0499 36.7956 -0.704281 23.1268 3.44116 1.71164e-09 -7.41724e-10 1.42894e-09 2.98166e-09 -1.29269e-09 2.43561e-09 1.71165e-09 -7.41719e-10 1.42892e-09 7.73091 5.47488 0.417314 1.71164e-09 -7.4172e-10 1.42894e-09 2.90554 0.965183 0.102902 1.71166e-09 -7.4172e-10 1.42894e-09 10.2786 0.731801 0.0259123 1.71164e-09 -7.41723e-10 1.42895e-09 2.22167 -0.733487 -0.20892 -1.14787e-13 5.97665e-12 -1.65936e-13 -37.0757 35.6459 -54.7329 17.2196 -9.87155 -32.2921 1.12003 28.5924 -4.39324 -5.4469e-10 -6.98017e-10 7.3661e-10 -9.24884e-10 -1.19715e-09 1.28478e-09 -5.44695e-10 -6.98019e-10 7.36623e-10 -7.73091 5.47488 -0.417314 -5.44688e-10 -6.98019e-10 7.36604e-10 -2.90554 0.965183 -0.102902 -5.44697e-10 -6.98018e-10 7.36606e-10 -10.2786 0.731801 -0.0259123 -5.44687e-10 -6.98014e-10 7.36601e-10 -2.22167 -0.733487 0.20892 -2.03217e-16 0.0 -3.88251e-19 -24.8836 -40.7904 -14.484 -0.875691 64.9503 3.48891 2.92485 5.33172 -3.12279 2.03217e-16 0.0 3.88251e-19 15.8274 -39.2762 7.16218 0.651796 59.9579 -2.93936 -3.24801 6.73669 6.20071
